HIERARCHY
ROOT Haolin_28_06:Solving:Hips
{
	OFFSET 0.000000 0.000000 0.000000
	CHANNELS 6 Xposition Yposition Zposition Xrotation Yrotation Zrotation
	JOINT Haolin_28_06:Solving:Spine
	{
		OFFSET 0.000000 -12.181966 2.015561
		CHANNELS 6 Xposition Yposition Zposition Xrotation Yrotation Zrotation
		JOINT Haolin_28_06:Solving:Spine1
		{
			OFFSET 0.000000 -8.890296 1.567602
			CHANNELS 6 Xposition Yposition Zposition Xrotation Yrotation Zrotation
			JOINT Haolin_28_06:Solving:Spine2
			{
				OFFSET 0.000000 -8.993092 0.786796
				CHANNELS 6 Xposition Yposition Zposition Xrotation Yrotation Zrotation
				JOINT Haolin_28_06:Solving:Spine3
				{
					OFFSET 0.000000 -9.027443 0.000000
					CHANNELS 6 Xposition Yposition Zposition Xrotation Yrotation Zrotation
					JOINT Haolin_28_06:Solving:Neck
					{
						OFFSET 0.000000 -11.606712 -1.160669
						CHANNELS 6 Xposition Yposition Zposition Xrotation Yrotation Zrotation
						JOINT Haolin_28_06:Solving:Neck1
						{
							OFFSET 0.000000 -7.471592 -0.653680
							CHANNELS 6 Xposition Yposition Zposition Xrotation Yrotation Zrotation
							JOINT Haolin_28_06:Solving:Head
							{
								OFFSET 0.000000 -7.386181 -1.302382
								CHANNELS 6 Xposition Yposition Zposition Xrotation Yrotation Zrotation
								JOINT Haolin_28_06:Solving:HeadEnd
								{
									OFFSET 0.000000 -9.728081 0.000002
									CHANNELS 6 Xposition Yposition Zposition Xrotation Yrotation Zrotation
									End Site
									{
										OFFSET 0.000000 -9.728081 0.000002
									}
								}
							}
						}
					}
					JOINT Haolin_28_06:Solving:RightShoulder
					{
						OFFSET 0.000000 -8.290508 -5.270916
						CHANNELS 6 Xposition Yposition Zposition Xrotation Yrotation Zrotation
						JOINT Haolin_28_06:Solving:RightArm
						{
							OFFSET -19.261074 -0.000008 0.000000
							CHANNELS 6 Xposition Yposition Zposition Xrotation Yrotation Zrotation
							JOINT Haolin_28_06:Solving:RightForeArm
							{
								OFFSET -30.691700 -0.000011 0.000000
								CHANNELS 6 Xposition Yposition Zposition Xrotation Yrotation Zrotation
								JOINT Haolin_28_06:Solving:RightHand
								{
									OFFSET -20.216934 -0.000008 0.000000
									CHANNELS 6 Xposition Yposition Zposition Xrotation Yrotation Zrotation
									JOINT Haolin_28_06:Solving:RightHandThumb1
									{
										OFFSET -4.948814 2.881329 -3.679893
										CHANNELS 6 Xposition Yposition Zposition Xrotation Yrotation Zrotation
										End Site
										{
											OFFSET -7.039886 -0.000004 -7.104978
										}
									}
									JOINT Haolin_28_06:Solving:RightHandMiddle1
									{
										OFFSET -13.196846 -0.000004 0.084595
										CHANNELS 6 Xposition Yposition Zposition Xrotation Yrotation Zrotation
										End Site
										{
											OFFSET -10.002037 -0.000004 0.000000
										}
									}
								}
							}
						}
					}
					JOINT Haolin_28_06:Solving:LeftShoulder
					{
						OFFSET 0.000000 -8.290508 -5.270916
						CHANNELS 6 Xposition Yposition Zposition Xrotation Yrotation Zrotation
						JOINT Haolin_28_06:Solving:LeftArm
						{
							OFFSET 19.261074 -0.000008 0.000000
							CHANNELS 6 Xposition Yposition Zposition Xrotation Yrotation Zrotation
							JOINT Haolin_28_06:Solving:LeftForeArm
							{
								OFFSET 30.691700 -0.000011 0.000000
								CHANNELS 6 Xposition Yposition Zposition Xrotation Yrotation Zrotation
								JOINT Haolin_28_06:Solving:LeftHand
								{
									OFFSET 20.216934 -0.000008 0.000000
									CHANNELS 6 Xposition Yposition Zposition Xrotation Yrotation Zrotation
									JOINT Haolin_28_06:Solving:LeftHandThumb1
									{
										OFFSET 4.948814 2.881329 -3.679893
										CHANNELS 6 Xposition Yposition Zposition Xrotation Yrotation Zrotation
										End Site
										{
											OFFSET 7.039886 -0.000004 -7.104978
										}
									}
									JOINT Haolin_28_06:Solving:LeftHandMiddle1
									{
										OFFSET 13.196846 -0.000004 0.084595
										CHANNELS 6 Xposition Yposition Zposition Xrotation Yrotation Zrotation
										End Site
										{
											OFFSET 10.002037 -0.000004 0.000000
										}
									}
								}
							}
						}
					}
				}
			}
		}
	}
	JOINT Haolin_28_06:Solving:RightUpLeg
	{
		OFFSET -10.083070 0.000000 0.000000
		CHANNELS 6 Xposition Yposition Zposition Xrotation Yrotation Zrotation
		JOINT Haolin_28_06:Solving:RightLeg
		{
			OFFSET 0.000000 47.042522 -0.000008
			CHANNELS 6 Xposition Yposition Zposition Xrotation Yrotation Zrotation
			JOINT Haolin_28_06:Solving:RightFoot
			{
				OFFSET 0.000000 38.766415 -0.000006
				CHANNELS 6 Xposition Yposition Zposition Xrotation Yrotation Zrotation
				JOINT Haolin_28_06:Solving:RightForeFoot
				{
					OFFSET 0.000000 3.531212 -0.000000
					CHANNELS 6 Xposition Yposition Zposition Xrotation Yrotation Zrotation
					JOINT Haolin_28_06:Solving:RightToeBase
					{
						OFFSET 0.000000 0.000000 -13.829352
						CHANNELS 6 Xposition Yposition Zposition Xrotation Yrotation Zrotation
						JOINT Haolin_28_06:Solving:RightToeBaseEnd
						{
							OFFSET 0.000000 0.000000 -4.034167
							CHANNELS 6 Xposition Yposition Zposition Xrotation Yrotation Zrotation
							End Site
							{
								OFFSET 0.000000 -4.034164 0.000004
							}
						}
					}
				}
			}
		}
	}
	JOINT Haolin_28_06:Solving:LeftUpLeg
	{
		OFFSET 10.083070 0.000000 0.000000
		CHANNELS 6 Xposition Yposition Zposition Xrotation Yrotation Zrotation
		JOINT Haolin_28_06:Solving:LeftLeg
		{
			OFFSET 0.000000 47.042522 -0.000008
			CHANNELS 6 Xposition Yposition Zposition Xrotation Yrotation Zrotation
			JOINT Haolin_28_06:Solving:LeftFoot
			{
				OFFSET 0.000000 38.766415 -0.000006
				CHANNELS 6 Xposition Yposition Zposition Xrotation Yrotation Zrotation
				JOINT Haolin_28_06:Solving:LeftForeFoot
				{
					OFFSET 0.000000 3.531212 -0.000000
					CHANNELS 6 Xposition Yposition Zposition Xrotation Yrotation Zrotation
					JOINT Haolin_28_06:Solving:LeftToeBase
					{
						OFFSET 0.000000 0.000000 -13.829352
						CHANNELS 6 Xposition Yposition Zposition Xrotation Yrotation Zrotation
						JOINT Haolin_28_06:Solving:LeftToeBaseEnd
						{
							OFFSET 0.000000 0.000000 -4.855067
							CHANNELS 6 Xposition Yposition Zposition Xrotation Yrotation Zrotation
							End Site
							{
								OFFSET 0.000000 -4.855064 0.000004
							}
						}
					}
				}
			}
		}
	}
}
MOTION
Frames: 4
Frame Time: 0.041667
16.559170 -118.352158 -93.954697 78.545229 0.586211 -0.334412 0.000001 -12.181978 2.015571 16.584155 -1.123223 -3.982409 -0.000001 -8.890292 1.567629 0.203484 0.146334 -1.102375 0.000005 -8.993089 0.786790 -0.291383 -0.753504 -0.250356 -0.000002 -9.027431 0.000038 2.373710 -0.896626 1.843816 -0.000004 -11.606691 -1.160679 -5.486999 0.992671 -0.589520 -0.000001 -7.471624 -0.653668 -0.203961 -1.794347 -0.810726 0.000000 -7.386187 -1.302423 6.260177 -0.031509 -0.879338 -0.000001 -9.728111 0.000020 -0.000000 -0.000000 0.000000 -0.000004 -8.290501 -5.270923 -0.000013 20.145117 8.255703 -19.261076 -0.000041 -0.000012 -10.427826 -53.709292 -86.723916 -30.691706 -0.000018 0.000013 -16.835204 -11.073815 -3.326241 -20.216913 -0.000020 -0.000002 1.190275 -10.618428 6.433230 -4.948854 2.881320 -3.679895 -0.000002 0.000005 -0.000002 -13.196877 -0.000017 0.084583 0.000003 0.000004 -0.000001 -0.000005 -8.290501 -5.270922 -0.000010 -11.629292 -7.488047 19.261070 -0.000019 0.000006 -12.282002 34.840945 90.558411 30.691696 -0.000018 -0.000004 -12.614471 13.517153 2.994313 20.216911 -0.000009 0.000006 0.105932 0.378294 -15.644270 4.948799 2.881323 -3.679851 -0.000001 0.000003 0.000000 13.196821 -0.000015 0.084624 0.000000 0.000001 -0.000002 -10.083072 -0.000015 0.000023 18.730580 9.031863 -4.463220 -0.000003 47.042519 -0.000002 -2.062196 -0.000001 0.000000 -0.000000 38.766422 -0.000001 2.574428 4.560860 6.610333 -0.000007 3.531204 0.000004 0.000001 -0.000002 -0.000000 0.000001 -0.000001 -13.829376 -0.392020 -0.000002 -0.000000 0.000001 0.000008 -4.034165 0.000001 0.000003 -0.000000 10.083075 0.000005 0.000028 -4.645321 -5.875511 -8.842676 -0.000002 47.042526 -0.000022 35.174617 0.000001 -0.000002 -0.000001 38.766434 -0.000009 -0.277732 -7.749858 3.893838 -0.000000 3.531204 0.000023 0.000002 -0.000001 0.000002 -0.000004 0.000001 -13.829340 -1.016435 0.000003 -0.000000 -0.000006 -0.000001 -4.855078 -0.000003 0.000001 0.000001 
16.592197 -118.302658 -93.962502 78.629705 0.732764 -0.365669 0.000000 -12.181974 2.015582 16.567302 -1.132880 -3.975826 -0.000001 -8.890309 1.567603 0.192078 0.146972 -1.101652 -0.000000 -8.993093 0.786795 -0.290991 -0.794479 -0.249562 -0.000005 -9.027425 -0.000013 2.379442 -0.912554 1.863107 0.000004 -11.606711 -1.160679 -5.504214 0.941607 -0.616728 -0.000002 -7.471571 -0.653663 -0.206357 -1.885198 -0.804871 -0.000002 -7.386207 -1.302345 6.260020 -0.035982 -0.892767 -0.000006 -9.728073 0.000024 -0.000001 -0.000000 0.000000 0.000003 -8.290516 -5.270916 -0.000007 20.060860 8.347996 -19.261066 0.000005 0.000036 -10.796144 -54.560654 -86.646366 -30.691704 0.000014 -0.000007 -16.808938 -11.478489 -3.440226 -20.216900 -0.000009 0.000004 1.280813 -10.701191 6.865788 -4.948794 2.881335 -3.679868 0.000000 -0.000000 0.000006 -13.196835 0.000012 0.084615 -0.000002 0.000001 0.000005 0.000005 -8.290516 -5.270916 -0.000003 -11.584030 -7.492944 19.261072 -0.000009 0.000010 -12.425499 35.453535 90.443610 30.691710 -0.000019 -0.000008 -11.714107 14.090894 2.889886 20.216944 -0.000009 0.000006 0.120239 0.418625 -16.025564 4.948791 2.881336 -3.679890 -0.000001 -0.000005 -0.000001 13.196840 -0.000001 0.084597 -0.000003 0.000002 0.000002 -10.083072 -0.000005 0.000009 18.643599 9.175364 -4.372169 -0.000001 47.042515 -0.000043 -2.007649 -0.000002 0.000001 -0.000003 38.766426 0.000001 2.517930 4.327725 6.597257 0.000002 3.531212 0.000011 0.000002 -0.000001 -0.000000 0.000002 0.000014 -13.829345 -0.368852 0.000003 -0.000000 0.000000 -0.000007 -4.034184 0.000003 0.000001 0.000001 10.083067 -0.000004 0.000019 -4.885248 -6.170696 -8.805559 -0.000003 47.042530 0.000009 34.724463 -0.000001 -0.000003 -0.000009 38.766415 0.000007 -0.306532 -7.059022 4.095058 0.000000 3.531212 -0.000003 -0.000002 -0.000001 0.000002 0.000002 0.000007 -13.829370 -0.848512 0.000003 -0.000000 0.000011 0.000007 -4.855052 -0.000001 -0.000002 0.000000 
16.634481 -118.243988 -93.971649 78.703416 0.887403 -0.402931 0.000004 -12.181953 2.015589 16.548286 -1.132697 -3.979885 -0.000001 -8.890294 1.567595 0.189527 0.145550 -1.094111 0.000004 -8.993090 0.786789 -0.286650 -0.838090 -0.240913 -0.000001 -9.027436 -0.000015 2.387864 -0.927139 1.900569 -0.000002 -11.606727 -1.160665 -5.516381 0.890534 -0.626885 0.000003 -7.471574 -0.653671 -0.229325 -1.982894 -0.828143 -0.000003 -7.386180 -1.302391 6.276697 -0.041016 -0.910186 0.000001 -9.728088 0.000008 -0.000001 0.000000 -0.000001 -0.000001 -8.290516 -5.270905 -0.000007 19.973862 8.438133 -19.261065 -0.000009 0.000015 -11.118610 -55.257088 -86.529160 -30.691708 0.000011 -0.000015 -16.646769 -12.015003 -3.561641 -20.216909 -0.000011 0.000002 1.359682 -10.709066 7.279077 -4.948819 2.881330 -3.679879 -0.000005 -0.000005 0.000004 -13.196876 -0.000006 0.084590 -0.000005 0.000001 0.000002 -0.000001 -8.290516 -5.270905 -0.000008 -11.536517 -7.528517 19.261065 -0.000029 0.000011 -12.560884 35.996279 90.313085 30.691692 -0.000023 0.000022 -10.763378 14.677079 2.757534 20.216921 -0.000005 -0.000010 0.136379 0.464628 -16.358822 4.948840 2.881335 -3.679853 -0.000004 -0.000005 -0.000007 13.196875 -0.000004 0.084607 -0.000005 0.000003 -0.000002 -10.083075 0.000024 0.000022 18.578337 9.225606 -4.264744 -0.000000 47.042511 -0.000029 -1.985947 -0.000002 0.000000 -0.000004 38.766426 0.000006 2.479630 4.168996 6.567514 0.000006 3.531204 -0.000000 0.000001 -0.000001 0.000000 0.000003 0.000016 -13.829367 -0.356199 0.000001 0.000000 0.000003 0.000000 -4.034175 0.000001 0.000002 -0.000000 10.083071 0.000033 0.000017 -5.033673 -6.349050 -8.725771 0.000007 47.042511 -0.000012 34.126460 -0.000001 -0.000002 -0.000009 38.766411 -0.000005 -0.335763 -6.424730 4.377345 -0.000007 3.531219 -0.000023 0.000002 0.000002 -0.000000 0.000015 0.000001 -13.829356 -0.686055 -0.000001 -0.000000 0.000009 -0.000007 -4.855041 0.000001 0.000002 0.000001 
16.677008 -118.176910 -93.979660 78.779402 1.050796 -0.429363 -0.000004 -12.181952 2.015541 16.529372 -1.140721 -3.986936 0.000000 -8.890292 1.567589 0.176982 0.145393 -1.093865 -0.000003 -8.993093 0.786804 -0.284846 -0.882457 -0.221169 0.000000 -9.027442 -0.000019 2.399309 -0.944376 1.929643 0.000001 -11.606693 -1.160657 -5.537449 0.854822 -0.628637 0.000001 -7.471597 -0.653691 -0.226941 -2.065383 -0.853521 0.000000 -7.386202 -1.302373 6.286481 -0.046472 -0.915051 -0.000003 -9.728081 -0.000004 0.000001 -0.000000 0.000001 0.000001 -8.290493 -5.270887 -0.000009 19.900596 8.551910 -19.261080 0.000006 -0.000007 -11.475379 -55.864151 -86.436857 -30.691717 -0.000004 0.000010 -16.407433 -12.549108 -3.660707 -20.216917 -0.000008 0.000011 1.436659 -10.781251 7.636245 -4.948842 2.881315 -3.679864 -0.000001 -0.000002 0.000004 -13.196884 -0.000025 0.084604 0.000002 -0.000003 0.000000 -0.000001 -8.290478 -5.270889 -0.000007 -11.454311 -7.640007 19.261084 -0.000031 0.000005 -12.828498 35.775684 90.350582 30.691710 -0.000018 -0.000014 -9.214766 15.004857 2.405080 20.216932 -0.000012 -0.000000 0.204214 0.693492 -16.408959 4.948790 2.881334 -3.679875 -0.000006 -0.000003 -0.000003 13.196853 0.000002 0.084592 0.000000 -0.000002 -0.000001 -10.083071 0.000010 -0.000009 18.519804 9.260610 -4.164431 0.000001 47.042522 -0.000007 -1.964348 -0.000001 0.000001 0.000000 38.766415 0.000010 2.426911 4.036659 6.528831 0.000002 3.531219 -0.000011 -0.000001 -0.000000 -0.000000 0.000000 0.000023 -13.829341 -0.427516 0.000000 0.000000 -0.000008 0.000001 -4.034167 0.000002 -0.000001 0.000000 10.083064 0.000018 -0.000032 -5.228981 -6.652300 -8.705893 -0.000001 47.042534 0.000028 33.508430 -0.000002 -0.000002 -0.000008 38.766403 -0.000004 -0.207072 -5.610909 4.412926 0.000000 3.531189 -0.000029 0.000003 -0.000001 -0.000000 0.000008 0.000011 -13.829365 -0.933884 0.000004 -0.000000 -0.000005 0.000000 -4.855072 0.000001 -0.000001 0.000000 
